<?xml version="1.0" encoding="UTF-8"?>
<svg xmlns="http://www.w3.org/2000/svg" viewBox="0 0 31.33 31.33">
  <defs>
    <style>
      .cls-1 {
        fill: none;
        stroke: #d8b056;
        stroke-linecap: round;
        stroke-linejoin: round;
        stroke-width: .9px;
      }
    </style>
  </defs>
  <rect width="31.33" height="31.33" rx="7" fill="#1a1510"/>
  <g>
    <g>
      <g>
        <g>
          <path class="cls-1" d="m15.67,2.56c0,2.4,0,4.79,0,7.19"/>
          <path class="cls-1" d="m15.66.17v1.2"/>
        </g>
        <g>
          <path class="cls-1" d="m16.91,6.26c-.08.6-.16,1.19-.24,1.79-.06.46-.12.91-.18,1.37-.02.13-.03.25-.05.38"/>
          <path class="cls-1" d="m17.21,3.93c-.03.22-.06.43-.09.65-.02.14-.04.28-.05.42"/>
        </g>
      </g>
      <g>
        <g>
          <path class="cls-1" d="m19.06,3c-.63,2.32-1.25,4.62-1.86,6.95"/>
          <path class="cls-1" d="m19.68.69c-.11.39-.21.77-.31,1.16"/>
        </g>
        <g>
          <path class="cls-1" d="m19.3,6.9c-.23.55-.46,1.11-.69,1.66-.18.43-.35.85-.53,1.28-.05.12-.1.24-.15.35"/>
          <path class="cls-1" d="m20.2,4.73c-.08.2-.17.4-.25.61-.05.13-.11.26-.16.39"/>
        </g>
      </g>
      <g>
        <g>
          <path class="cls-1" d="m22.22,4.31c-1.21,2.07-2.4,4.14-3.6,6.23"/>
          <path class="cls-1" d="m23.41,2.24c-.2.35-.4.69-.6,1.04"/>
        </g>
        <g>
          <path class="cls-1" d="m21.44,8.14c-.37.48-.73.95-1.1,1.43-.28.37-.56.73-.84,1.1-.08.1-.16.2-.23.3"/>
          <path class="cls-1" d="m22.88,6.27c-.13.17-.27.35-.4.52-.09.11-.17.22-.26.33"/>
        </g>
      </g>
      <g>
        <g>
          <path class="cls-1" d="m24.94,6.4c-1.7,1.69-3.39,3.38-5.08,5.08"/>
          <path class="cls-1" d="m26.62,4.7c-.29.29-.57.57-.85.85"/>
        </g>
        <g>
          <path class="cls-1" d="m23.19,9.89c-.48.37-.95.73-1.43,1.1-.37.28-.73.56-1.1.84-.1.08-.2.16-.3.23"/>
          <path class="cls-1" d="m25.06,8.46c-.17.13-.35.27-.52.4-.11.09-.22.17-.33.26"/>
        </g>
      </g>
      <g>
        <g>
          <path class="cls-1" d="m27.02,9.11c-2.08,1.19-4.15,2.39-6.23,3.6"/>
          <path class="cls-1" d="m29.09,7.91c-.35.2-.69.4-1.04.6"/>
        </g>
        <g>
          <path class="cls-1" d="m24.43,12.04c-.55.23-1.11.46-1.66.69-.43.18-.85.35-1.28.53-.12.05-.24.1-.35.15"/>
          <path class="cls-1" d="m26.61,11.14c-.2.08-.4.17-.61.25-.13.05-.26.11-.39.16"/>
        </g>
      </g>
      <g>
        <g>
          <path class="cls-1" d="m28.33,12.27c-2.32.61-4.63,1.23-6.95,1.86"/>
          <path class="cls-1" d="m30.64,11.65c-.39.11-.77.21-1.16.31"/>
        </g>
        <g>
          <path class="cls-1" d="m25.07,14.43c-.6.08-1.19.16-1.79.24-.46.06-.91.12-1.37.18-.13.02-.25.03-.38.05"/>
          <path class="cls-1" d="m27.41,14.12c-.22.03-.43.06-.65.09-.14.02-.28.04-.42.05"/>
        </g>
      </g>
      <g>
        <g>
          <path class="cls-1" d="m28.78,15.67c-2.4,0-4.79,0-7.19,0"/>
          <path class="cls-1" d="m31.17,15.66c-.41,0-.8,0-1.2,0"/>
        </g>
        <g>
          <path class="cls-1" d="m25.07,16.91c-.6-.08-1.19-.16-1.79-.24-.46-.06-.91-.12-1.37-.18-.13-.02-.25-.03-.38-.05"/>
          <path class="cls-1" d="m27.41,17.21c-.22-.03-.43-.06-.65-.09-.14-.02-.28-.04-.42-.05"/>
        </g>
      </g>
      <g>
        <g>
          <path class="cls-1" d="m28.33,19.06c-2.32-.63-4.62-1.25-6.95-1.86"/>
          <path class="cls-1" d="m30.64,19.68c-.39-.11-.77-.21-1.16-.31"/>
        </g>
        <g>
          <path class="cls-1" d="m24.43,19.3c-.55-.23-1.11-.46-1.66-.69-.43-.18-.85-.35-1.28-.53-.12-.05-.24-.1-.35-.15"/>
          <path class="cls-1" d="m26.61,20.2c-.2-.08-.4-.17-.61-.25-.13-.05-.26-.11-.39-.16"/>
        </g>
      </g>
      <g>
        <g>
          <path class="cls-1" d="m27.02,22.22c-2.07-1.21-4.14-2.4-6.23-3.6"/>
          <path class="cls-1" d="m29.09,23.41c-.35-.2-.69-.4-1.04-.6"/>
        </g>
        <g>
          <path class="cls-1" d="m23.19,21.44c-.48-.37-.95-.73-1.43-1.1-.37-.28-.73-.56-1.1-.84-.1-.08-.2-.16-.3-.23"/>
          <path class="cls-1" d="m25.06,22.88c-.17-.13-.35-.27-.52-.4-.11-.09-.22-.17-.33-.26"/>
        </g>
      </g>
      <g>
        <g>
          <path class="cls-1" d="m24.94,24.94c-1.69-1.7-3.38-3.39-5.08-5.08"/>
          <path class="cls-1" d="m26.63,26.62c-.29-.29-.57-.57-.85-.85"/>
        </g>
        <g>
          <path class="cls-1" d="m21.44,23.19c-.37-.48-.73-.95-1.1-1.43-.28-.37-.56-.73-.84-1.1-.08-.1-.16-.2-.23-.3"/>
          <path class="cls-1" d="m22.88,25.06c-.13-.17-.27-.35-.4-.52-.09-.11-.17-.22-.26-.33"/>
        </g>
      </g>
      <g>
        <g>
          <path class="cls-1" d="m22.22,27.02c-1.19-2.08-2.39-4.15-3.6-6.23"/>
          <path class="cls-1" d="m23.42,29.09c-.2-.35-.4-.69-.6-1.04"/>
        </g>
        <g>
          <path class="cls-1" d="m19.3,24.43c-.23-.55-.46-1.11-.69-1.66-.18-.43-.35-.85-.53-1.28-.05-.12-.1-.24-.15-.35"/>
          <path class="cls-1" d="m20.2,26.61c-.08-.2-.17-.4-.25-.61-.05-.13-.11-.26-.16-.39"/>
        </g>
      </g>
      <g>
        <g>
          <path class="cls-1" d="m19.06,28.33c-.61-2.32-1.23-4.63-1.86-6.95"/>
          <path class="cls-1" d="m19.68,30.64c-.11-.39-.21-.77-.31-1.16"/>
        </g>
        <g>
          <path class="cls-1" d="m16.91,25.07c-.08-.6-.16-1.19-.24-1.79-.06-.46-.12-.91-.18-1.37-.02-.13-.03-.25-.05-.38"/>
          <path class="cls-1" d="m17.21,27.41c-.03-.22-.06-.43-.09-.65-.02-.14-.04-.28-.05-.42"/>
        </g>
      </g>
      <g>
        <g>
          <path class="cls-1" d="m15.67,28.78c.01-2.4,0-4.79,0-7.19"/>
          <path class="cls-1" d="m15.67,31.17c0-.41,0-.8,0-1.2"/>
        </g>
        <g>
          <path class="cls-1" d="m14.43,25.07c.08-.6.16-1.19.24-1.79.06-.46.12-.91.18-1.37.02-.13.03-.25.05-.38"/>
          <path class="cls-1" d="m14.12,27.41c.03-.22.06-.43.09-.65.02-.14.04-.28.05-.42"/>
        </g>
      </g>
      <g>
        <g>
          <path class="cls-1" d="m12.27,28.33c.63-2.32,1.25-4.62,1.86-6.95"/>
          <path class="cls-1" d="m11.66,30.64c.11-.39.21-.77.31-1.16"/>
        </g>
        <g>
          <path class="cls-1" d="m12.04,24.43c.23-.55.46-1.11.69-1.66.18-.43.35-.85.53-1.28.05-.12.1-.24.15-.35"/>
          <path class="cls-1" d="m11.14,26.61c.08-.2.17-.4.25-.61.05-.13.11-.26.16-.39"/>
        </g>
      </g>
      <g>
        <g>
          <path class="cls-1" d="m9.11,27.02c1.21-2.07,2.4-4.14,3.6-6.23"/>
          <path class="cls-1" d="m7.92,29.09c.2-.35.4-.69.6-1.04"/>
        </g>
        <g>
          <path class="cls-1" d="m9.89,23.19c.37-.48.73-.95,1.1-1.43.28-.37.56-.73.84-1.1.08-.1.16-.2.23-.3"/>
          <path class="cls-1" d="m8.46,25.06c.13-.17.27-.35.4-.52.09-.11.17-.22.26-.33"/>
        </g>
      </g>
      <g>
        <g>
          <path class="cls-1" d="m6.4,24.94c1.71-1.69,3.39-3.38,5.08-5.08"/>
          <path class="cls-1" d="m4.71,26.63c.29-.29.57-.57.85-.85"/>
        </g>
        <g>
          <path class="cls-1" d="m8.14,21.44c.48-.37.95-.73,1.43-1.1.37-.28.73-.56,1.1-.84.1-.08.2-.16.3-.23"/>
          <path class="cls-1" d="m6.27,22.88c.17-.13.35-.27.52-.4.11-.09.22-.17.33-.26"/>
        </g>
      </g>
      <g>
        <g>
          <path class="cls-1" d="m4.31,22.22c2.08-1.19,4.15-2.39,6.23-3.6"/>
          <path class="cls-1" d="m2.25,23.42c.35-.2.69-.4,1.04-.6"/>
        </g>
        <g>
          <path class="cls-1" d="m6.9,19.3c.55-.23,1.11-.46,1.66-.69.43-.18.85-.35,1.28-.53.12-.05.24-.1.35-.15"/>
          <path class="cls-1" d="m4.73,20.2c.2-.08.4-.17.61-.25.13-.05.26-.11.39-.16"/>
        </g>
      </g>
      <g>
        <g>
          <path class="cls-1" d="m3,19.06c2.32-.61,4.63-1.23,6.95-1.86"/>
          <path class="cls-1" d="m.7,19.68c.39-.11.77-.21,1.16-.31"/>
        </g>
        <g>
          <path class="cls-1" d="m6.26,16.91c.6-.08,1.19-.16,1.79-.24.46-.06.91-.12,1.37-.18.13-.02.25-.03.38-.05"/>
          <path class="cls-1" d="m3.93,17.21c.22-.03.43-.06.65-.09.14-.02.28-.04.42-.05"/>
        </g>
      </g>
      <g>
        <g>
          <path class="cls-1" d="m2.56,15.67c2.4,0,4.79,0,7.19,0"/>
          <path class="cls-1" d="m.17,15.67c.41,0,.8,0,1.2,0"/>
        </g>
        <g>
          <path class="cls-1" d="m6.26,14.43c.6.08,1.19.16,1.79.24.46.06.91.12,1.37.18.13.02.25.03.38.05"/>
          <path class="cls-1" d="m3.93,14.12c.22.03.43.06.65.09.14.02.28.04.42.05"/>
        </g>
      </g>
      <g>
        <g>
          <path class="cls-1" d="m3,12.27c2.32.63,4.62,1.25,6.95,1.86"/>
          <path class="cls-1" d="m.69,11.66c.39.11.77.21,1.16.31"/>
        </g>
        <g>
          <path class="cls-1" d="m6.9,12.04c.55.23,1.11.46,1.66.69.43.18.85.35,1.28.53.12.05.24.1.35.15"/>
          <path class="cls-1" d="m4.73,11.14c.2.08.4.17.61.25.13.05.26.11.39.16"/>
        </g>
      </g>
      <g>
        <g>
          <path class="cls-1" d="m4.31,9.11c2.07,1.21,4.14,2.4,6.23,3.6"/>
          <path class="cls-1" d="m2.24,7.92c.35.2.69.4,1.04.6"/>
        </g>
        <g>
          <path class="cls-1" d="m8.14,9.89c.48.37.95.73,1.43,1.1.37.28.73.56,1.1.84.1.08.2.16.3.23"/>
          <path class="cls-1" d="m6.27,8.46c.17.13.35.27.52.4.11.09.22.17.33.26"/>
        </g>
      </g>
      <g>
        <g>
          <path class="cls-1" d="m6.4,6.4c1.69,1.7,3.38,3.39,5.08,5.08"/>
          <path class="cls-1" d="m4.7,4.71c.29.29.57.57.85.85"/>
        </g>
        <g>
          <path class="cls-1" d="m9.89,8.14c.37.48.73.95,1.1,1.43.28.37.56.73.84,1.1.08.1.16.2.23.3"/>
          <path class="cls-1" d="m8.46,6.27c.13.17.27.35.4.52.09.11.17.22.26.33"/>
        </g>
      </g>
      <g>
        <g>
          <path class="cls-1" d="m9.11,4.31c1.19,2.08,2.39,4.15,3.6,6.23"/>
          <path class="cls-1" d="m7.91,2.25c.2.35.4.69.6,1.04"/>
        </g>
        <g>
          <path class="cls-1" d="m12.04,6.9c.23.55.46,1.11.69,1.66.18.43.35.85.53,1.28.05.12.1.24.15.35"/>
          <path class="cls-1" d="m11.14,4.73c.08.2.17.4.25.61.05.13.11.26.16.39"/>
        </g>
      </g>
      <g>
        <g>
          <path class="cls-1" d="m12.27,3c.61,2.32,1.23,4.63,1.86,6.95"/>
          <path class="cls-1" d="m11.65.7c.11.39.21.77.31,1.16"/>
        </g>
        <g>
          <path class="cls-1" d="m14.43,6.26c.08.6.16,1.19.24,1.79.06.46.12.91.18,1.37.02.13.03.25.05.38"/>
          <path class="cls-1" d="m14.12,3.93c.03.22.06.43.09.65.02.14.04.28.05.42"/>
        </g>
      </g>
    </g>
  </g>
</svg>
