<?xml version="1.0" encoding="UTF-8"?>
<svg xmlns="http://www.w3.org/2000/svg" viewBox="0 0 95.58 63.12">
  <defs>
    <style>
      .cls-1 {
        fill: #e9e7e1;
      }

      path:not([class]) {
        fill: #e9e7e1;
      }

      .cls-2 {
        fill: none;
        stroke: #d8b056;
        stroke-linecap: round;
        stroke-linejoin: round;
        stroke-width: .67px;
      }
    </style>
  </defs>
  <g>
    <g>
      <g>
        <g>
          <g>
            <path class="cls-2" d="m64.02,5.15c-.02,4.84-.02,9.65,0,14.49"/>
            <path class="cls-2" d="m64.01.34v2.43"/>
          </g>
          <g>
            <path class="cls-2" d="m66.51,12.61c-.16,1.2-.32,2.4-.47,3.6-.12.92-.24,1.84-.36,2.76-.03.26-.07.51-.1.77"/>
            <path class="cls-2" d="m67.13,7.91c-.06.44-.11.87-.17,1.31-.04.28-.07.56-.11.84"/>
          </g>
        </g>
        <g>
          <g>
            <path class="cls-2" d="m70.85,6.05c-1.27,4.67-2.52,9.31-3.75,13.99"/>
            <path class="cls-2" d="m72.09,1.4c-.21.79-.42,1.56-.63,2.34"/>
          </g>
          <g>
            <path class="cls-2" d="m71.33,13.9c-.46,1.12-.93,2.24-1.39,3.35-.36.86-.71,1.71-1.07,2.57-.1.24-.2.48-.3.71"/>
            <path class="cls-2" d="m73.15,9.52c-.17.41-.34.81-.5,1.22-.11.26-.22.52-.32.78"/>
          </g>
        </g>
        <g>
          <g>
            <path class="cls-2" d="m77.22,8.69c-2.44,4.18-4.84,8.35-7.24,12.54"/>
            <path class="cls-2" d="m79.62,4.52c-.41.71-.81,1.4-1.21,2.1"/>
          </g>
          <g>
            <path class="cls-2" d="m75.65,16.4c-.74.96-1.47,1.92-2.21,2.88-.56.74-1.13,1.47-1.69,2.21-.16.2-.31.41-.47.61"/>
            <path class="cls-2" d="m78.54,12.64c-.27.35-.54.7-.8,1.05-.17.22-.34.45-.52.67"/>
          </g>
        </g>
        <g>
          <g>
            <path class="cls-2" d="m82.69,12.89c-3.43,3.41-6.84,6.81-10.24,10.24"/>
            <path class="cls-2" d="m86.09,9.48c-.58.58-1.14,1.14-1.72,1.71"/>
          </g>
          <g>
            <path class="cls-2" d="m79.18,19.93c-.96.74-1.92,1.47-2.88,2.21-.74.56-1.47,1.13-2.21,1.69-.2.16-.41.31-.61.47"/>
            <path class="cls-2" d="m82.94,17.04c-.35.27-.7.54-1.05.8-.22.17-.45.34-.67.52"/>
          </g>
        </g>
        <g>
          <g>
            <path class="cls-2" d="m86.89,18.36c-4.2,2.4-8.37,4.81-12.54,7.24"/>
            <path class="cls-2" d="m91.05,15.94c-.71.41-1.4.81-2.1,1.21"/>
          </g>
          <g>
            <path class="cls-2" d="m81.67,24.25c-1.12.46-2.24.93-3.35,1.39-.86.36-1.71.71-2.57,1.07-.24.1-.48.2-.71.3"/>
            <path class="cls-2" d="m86.05,22.43c-.41.17-.81.34-1.22.5-.26.11-.52.22-.78.32"/>
          </g>
        </g>
        <g>
          <g>
            <path class="cls-2" d="m89.53,24.73c-4.68,1.23-9.33,2.48-13.99,3.75"/>
            <path class="cls-2" d="m94.18,23.47c-.79.21-1.56.42-2.34.63"/>
          </g>
          <g>
            <path class="cls-2" d="m82.97,29.07c-1.2.16-2.4.32-3.6.47-.92.12-1.84.24-2.76.36-.26.03-.51.07-.77.1"/>
            <path class="cls-2" d="m87.67,28.45c-.44.06-.87.11-1.31.17-.28.04-.56.07-.84.11"/>
          </g>
        </g>
        <g>
          <g>
            <path class="cls-2" d="m90.43,31.56c-4.84-.02-9.65-.02-14.49,0"/>
            <path class="cls-2" d="m95.24,31.55c-.82,0-1.61,0-2.43,0"/>
          </g>
          <g>
            <path class="cls-2" d="m82.97,34.06c-1.2-.16-2.4-.32-3.6-.47-.92-.12-1.84-.24-2.76-.36-.26-.03-.51-.07-.77-.1"/>
            <path class="cls-2" d="m87.67,34.67c-.44-.06-.87-.11-1.31-.17-.28-.04-.56-.07-.84-.11"/>
          </g>
        </g>
        <g>
          <g>
            <path class="cls-2" d="m89.53,38.4c-4.67-1.27-9.31-2.52-13.99-3.75"/>
            <path class="cls-2" d="m94.18,39.63c-.79-.21-1.56-.42-2.34-.63"/>
          </g>
          <g>
            <path class="cls-2" d="m81.67,38.87c-1.12-.46-2.24-.93-3.35-1.39-.86-.36-1.71-.71-2.57-1.07-.24-.1-.48-.2-.71-.3"/>
            <path class="cls-2" d="m86.05,40.69c-.41-.17-.81-.34-1.22-.5-.26-.11-.52-.22-.78-.32"/>
          </g>
        </g>
        <g>
          <g>
            <path class="cls-2" d="m86.89,44.77c-4.18-2.44-8.35-4.84-12.54-7.24"/>
            <path class="cls-2" d="m91.06,47.17c-.71-.41-1.4-.81-2.1-1.21"/>
          </g>
          <g>
            <path class="cls-2" d="m79.18,43.2c-.96-.74-1.92-1.47-2.88-2.21-.74-.56-1.47-1.13-2.21-1.69-.2-.16-.41-.31-.61-.47"/>
            <path class="cls-2" d="m82.94,46.08c-.35-.27-.7-.54-1.05-.8-.22-.17-.45-.34-.67-.52"/>
          </g>
        </g>
        <g>
          <g>
            <path class="cls-2" d="m82.69,50.24c-3.41-3.43-6.81-6.84-10.24-10.24"/>
            <path class="cls-2" d="m86.1,53.63c-.58-.58-1.14-1.14-1.72-1.72"/>
          </g>
          <g>
            <path class="cls-2" d="m75.65,46.72c-.74-.96-1.47-1.92-2.21-2.88-.56-.74-1.13-1.47-1.69-2.21-.16-.2-.31-.41-.47-.61"/>
            <path class="cls-2" d="m78.54,50.48c-.27-.35-.54-.7-.8-1.05-.17-.22-.34-.45-.52-.67"/>
          </g>
        </g>
        <g>
          <g>
            <path class="cls-2" d="m77.22,54.43c-2.4-4.2-4.81-8.37-7.24-12.54"/>
            <path class="cls-2" d="m79.64,58.6c-.41-.71-.81-1.4-1.21-2.1"/>
          </g>
          <g>
            <path class="cls-2" d="m71.33,49.22c-.46-1.12-.93-2.24-1.39-3.35-.36-.86-.71-1.71-1.07-2.57-.1-.24-.2-.48-.3-.71"/>
            <path class="cls-2" d="m73.15,53.6c-.17-.41-.34-.81-.5-1.22-.11-.26-.22-.52-.32-.78"/>
          </g>
        </g>
        <g>
          <g>
            <path class="cls-2" d="m70.85,57.07c-1.23-4.68-2.48-9.33-3.75-13.99"/>
            <path class="cls-2" d="m72.11,61.72c-.21-.79-.42-1.56-.63-2.34"/>
          </g>
          <g>
            <path class="cls-2" d="m66.51,50.51c-.16-1.2-.32-2.4-.47-3.6-.12-.92-.24-1.84-.36-2.76-.03-.26-.07-.51-.1-.77"/>
            <path class="cls-2" d="m67.13,55.21c-.06-.44-.11-.87-.17-1.31-.04-.28-.07-.56-.11-.84"/>
          </g>
        </g>
        <g>
          <g>
            <path class="cls-2" d="m64.02,57.97c.02-4.84.02-9.65,0-14.49"/>
            <path class="cls-2" d="m64.03,62.78c0-.82,0-1.61,0-2.43"/>
          </g>
          <g>
            <path class="cls-2" d="m61.52,50.51c.16-1.2.32-2.4.47-3.6.12-.92.24-1.84.36-2.76.03-.26.07-.51.1-.77"/>
            <path class="cls-2" d="m60.9,55.21c.06-.44.11-.87.17-1.31.04-.28.07-.56.11-.84"/>
          </g>
        </g>
        <g>
          <g>
            <path class="cls-2" d="m57.18,57.07c1.27-4.67,2.52-9.31,3.75-13.99"/>
            <path class="cls-2" d="m55.94,61.72c.21-.79.42-1.56.63-2.34"/>
          </g>
          <g>
            <path class="cls-2" d="m56.7,49.22c.46-1.12.93-2.24,1.39-3.35.36-.86.71-1.71,1.07-2.57.1-.24.2-.48.3-.71"/>
            <path class="cls-2" d="m54.89,53.6c.17-.41.34-.81.5-1.22.11-.26.22-.52.32-.78"/>
          </g>
        </g>
        <g>
          <g>
            <path class="cls-2" d="m50.81,54.43c2.44-4.18,4.84-8.35,7.24-12.54"/>
            <path class="cls-2" d="m48.41,58.6c.41-.71.81-1.4,1.21-2.1"/>
          </g>
          <g>
            <path class="cls-2" d="m52.38,46.72c.74-.96,1.47-1.92,2.21-2.88.56-.74,1.13-1.47,1.69-2.21.16-.2.31-.41.47-.61"/>
            <path class="cls-2" d="m49.5,50.48c.27-.35.54-.7.8-1.05.17-.22.34-.45.52-.67"/>
          </g>
        </g>
        <g>
          <g>
            <path class="cls-2" d="m45.34,50.24c3.43-3.41,6.84-6.81,10.24-10.24"/>
            <path class="cls-2" d="m41.94,53.64c.58-.58,1.14-1.14,1.72-1.71"/>
          </g>
          <g>
            <path class="cls-2" d="m48.86,43.2c.96-.74,1.92-1.47,2.88-2.21.74-.57,1.47-1.13,2.21-1.69.2-.16.41-.31.61-.47"/>
            <path class="cls-2" d="m45.09,46.08c.35-.27.7-.54,1.05-.8.22-.17.45-.34.67-.52"/>
          </g>
        </g>
        <g>
          <g>
            <path class="cls-2" d="m41.14,44.77c4.2-2.4,8.37-4.81,12.54-7.24"/>
            <path class="cls-2" d="m36.98,47.18c.71-.41,1.4-.81,2.1-1.21"/>
          </g>
          <g>
            <path class="cls-2" d="m46.36,38.87c1.12-.46,2.24-.93,3.35-1.39.86-.36,1.72-.71,2.57-1.07.24-.1.48-.2.71-.3"/>
            <path class="cls-2" d="m41.98,40.69c.41-.17.81-.34,1.22-.5.26-.11.52-.22.78-.32"/>
          </g>
        </g>
        <g>
          <g>
            <path class="cls-2" d="m38.51,38.4c4.68-1.23,9.33-2.48,13.99-3.75"/>
            <path class="cls-2" d="m33.86,39.65c.79-.21,1.56-.42,2.34-.63"/>
          </g>
          <g>
            <path class="cls-2" d="m45.07,34.06c1.2-.16,2.4-.32,3.6-.47.92-.12,1.84-.24,2.76-.36.26-.03.51-.07.77-.1"/>
            <path class="cls-2" d="m40.37,34.67c.44-.06.87-.11,1.31-.17.28-.04.56-.07.84-.11"/>
          </g>
        </g>
        <g>
          <g>
            <path class="cls-2" d="m37.61,31.56c4.84.02,9.65.02,14.49,0"/>
            <path class="cls-2" d="m32.79,31.57c.82,0,1.61,0,2.43,0"/>
          </g>
          <g>
            <path class="cls-2" d="m45.07,29.07c1.2.16,2.4.32,3.6.47.92.12,1.84.24,2.76.36.26.03.51.07.77.1"/>
            <path class="cls-2" d="m40.37,28.45c.44.06.87.11,1.31.17.28.04.56.07.84.11"/>
          </g>
        </g>
        <g>
          <g>
            <path class="cls-2" d="m38.51,24.73c4.67,1.27,9.31,2.52,13.99,3.75"/>
            <path class="cls-2" d="m33.86,23.49c.79.21,1.56.42,2.34.63"/>
          </g>
          <g>
            <path class="cls-2" d="m46.36,24.25c1.12.46,2.24.93,3.35,1.39.86.36,1.72.71,2.57,1.07.24.1.48.2.71.3"/>
            <path class="cls-2" d="m41.98,22.43c.41.17.81.34,1.22.5.26.11.52.22.78.32"/>
          </g>
        </g>
        <g>
          <g>
            <path class="cls-2" d="m41.14,18.36c4.18,2.44,8.35,4.84,12.54,7.24"/>
            <path class="cls-2" d="m36.97,15.96c.71.41,1.4.81,2.1,1.21"/>
          </g>
          <g>
            <path class="cls-2" d="m48.86,19.93c.96.74,1.92,1.47,2.88,2.21.74.56,1.47,1.13,2.21,1.69.2.16.41.31.61.47"/>
            <path class="cls-2" d="m45.09,17.04c.35.27.7.54,1.05.8.22.17.45.34.67.52"/>
          </g>
        </g>
        <g>
          <g>
            <path class="cls-2" d="m45.34,12.89c3.41,3.43,6.81,6.84,10.24,10.24"/>
            <path class="cls-2" d="m41.93,9.49c.58.58,1.14,1.14,1.71,1.72"/>
          </g>
          <g>
            <path class="cls-2" d="m52.38,16.4c.74.96,1.47,1.92,2.21,2.88.57.74,1.13,1.47,1.69,2.21.16.2.31.41.47.61"/>
            <path class="cls-2" d="m49.5,12.64c.27.35.54.7.8,1.05.17.22.34.45.52.67"/>
          </g>
        </g>
        <g>
          <g>
            <path class="cls-2" d="m50.81,8.69c2.4,4.2,4.81,8.37,7.24,12.54"/>
            <path class="cls-2" d="m48.4,4.52c.41.71.81,1.4,1.21,2.1"/>
          </g>
          <g>
            <path class="cls-2" d="m56.7,13.9c.46,1.12.93,2.24,1.39,3.35.36.86.71,1.71,1.07,2.57.1.24.2.48.3.71"/>
            <path class="cls-2" d="m54.89,9.52c.17.41.34.81.5,1.22.11.26.22.52.32.78"/>
          </g>
        </g>
        <g>
          <g>
            <path class="cls-2" d="m57.18,6.05c1.23,4.68,2.48,9.33,3.75,13.99"/>
            <path class="cls-2" d="m55.93,1.4c.21.79.42,1.56.63,2.34"/>
          </g>
          <g>
            <path class="cls-2" d="m61.52,12.61c.16,1.2.32,2.4.47,3.6.12.92.24,1.84.36,2.76.03.25.07.51.1.77"/>
            <path class="cls-2" d="m60.9,7.91c.06.44.11.87.17,1.31.04.28.07.56.11.84"/>
          </g>
        </g>
      </g>
      <g>
        <polygon class="cls-1" points="0 36.38 0 18.27 9.12 18.27 9.12 20.14 1.98 20.14 1.98 25.57 8.97 25.57 8.97 27.44 1.98 27.44 1.98 34.51 9.12 34.51 9.12 36.38 0 36.38"/>
        <path d="m8.71,19.72H1.56v6.27h6.99v1.04H1.56v7.9h7.15v1.04H.42v-17.28h8.29v1.04Z"/>
        <polygon class="cls-1" points="9.67 24.97 11.73 24.97 15.18 33.1 18.58 24.97 20.63 24.97 15.18 37.66 9.67 24.97"/>
        <path d="m11.45,25.39l3.73,8.78,3.68-8.78h1.14l-4.82,11.22-4.87-11.22h1.14Z"/>
        <path class="cls-1" d="m26.6,36.66c-3.31,0-5.62-2.44-5.62-5.94,0-3.93,2.79-5.99,5.55-5.99,3.14,0,5.42,2.55,5.42,6.06v.42h-9.02c.18,2.09,1.74,3.62,3.76,3.62,1.43,0,2.64-.79,3.3-2.17l.2-.41,1.61.95-.18.35c-.49.93-1.95,3.1-5.01,3.1Zm3.34-7.26c-.4-1.7-1.75-2.84-3.41-2.84s-3.03,1.15-3.46,2.84h6.87Z"/>
        <path d="m22.48,30.81c0,2.69,1.97,4.46,4.2,4.46,1.71,0,3-1.01,3.68-2.41l.88.52c-.62,1.19-2.02,2.88-4.64,2.88-3.29,0-5.21-2.44-5.21-5.52,0-3.68,2.54-5.57,5.13-5.57,2.85,0,5,2.28,5,5.65h-9.04Zm7.95-.98c-.26-2.1-1.81-3.68-3.91-3.68s-3.68,1.63-3.96,3.68h7.87Z"/>
        <path class="cls-1" d="m34.16,36.38v-11.4h1.87v.49c.52-.47,1.18-.72,1.91-.72.27,0,.81.04,1.31.31l.37.2-.96,1.72-.38-.29s-.17-.12-.53-.12c-1.53,0-1.73,1.88-1.73,3.73v6.09h-1.87Z"/>
        <path d="m34.58,25.39h1.04v1.37c.39-.91,1.19-1.61,2.33-1.61.28,0,.73.05,1.11.26l-.52.93c-.1-.08-.31-.21-.78-.21-2.12,0-2.15,2.82-2.15,4.14v5.67h-1.04v-10.57Z"/>
        <path class="cls-1" d="m45.74,42.34c-3.22,0-5.47-1.98-5.6-4.93l-.02-.44h1.91l.03.38c.16,1.92,1.6,3.17,3.68,3.17,3.19,0,3.86-2.65,3.86-4.87v-.41c-1,.91-2.32,1.42-3.75,1.42-2.79,0-5.62-2.06-5.62-5.99,0-3.49,2.37-5.94,5.75-5.94,1.41,0,2.66.48,3.62,1.38v-1.14h1.87v10.68c0,4.19-2.14,6.69-5.73,6.69Zm.13-15.78c-2.56,0-3.73,2.16-3.73,4.17,0,2.42,1.51,4.12,3.68,4.12s3.83-1.73,3.83-4.22-1.55-4.06-3.78-4.06Z"/>
        <path d="m51.05,25.39v10.26c0,3.99-1.99,6.27-5.31,6.27-2.75,0-5.05-1.61-5.18-4.53h1.09c.18,2.2,1.84,3.55,4.09,3.55,4.17,0,4.27-4.2,4.27-5.28v-1.5c-1.06,1.48-2.67,2.1-4.17,2.1-2.59,0-5.21-1.89-5.21-5.57,0-3.06,2.02-5.52,5.34-5.52,1.74,0,3.13.78,4.04,2.07v-1.84h1.04Zm-9.33,5.34c0,2.54,1.61,4.53,4.09,4.53,2.62,0,4.25-2.05,4.25-4.64s-1.61-4.48-4.2-4.48-4.14,2.15-4.14,4.59Z"/>
        <rect class="cls-1" x="54.36" y="16.66" width="1.87" height="19.72"/>
        <path d="m55.82,17.08v18.88h-1.04v-18.88h1.04Z"/>
        <path class="cls-1" d="m64.42,36.66c-3.34,0-5.96-2.62-5.96-5.96s2.62-5.96,5.96-5.96,5.96,2.62,5.96,5.96-2.62,5.96-5.96,5.96Zm0-10.1c-2.3,0-4.04,1.78-4.04,4.14s1.74,4.14,4.04,4.14,4.04-1.78,4.04-4.14-1.74-4.14-4.04-4.14Z"/>
        <path d="m69.96,30.7c0,3.13-2.41,5.54-5.54,5.54s-5.54-2.41-5.54-5.54,2.41-5.54,5.54-5.54,5.54,2.41,5.54,5.54Zm-1.09,0c0-2.56-1.92-4.56-4.46-4.56s-4.46,1.99-4.46,4.56,1.92,4.56,4.46,4.56,4.46-1.99,4.46-4.56Z"/>
        <polygon class="cls-1" points="70.72 24.97 72.77 24.97 76.13 33.01 79.8 23.59 83.47 33.02 86.93 24.97 88.99 24.97 83.43 37.7 79.8 28.38 76.17 37.71 70.72 24.97"/>
        <path d="m72.5,25.39l3.65,8.73,3.65-9.38,3.65,9.38,3.76-8.73h1.14l-4.9,11.22-3.65-9.38-3.65,9.38-4.79-11.22h1.14Z"/>
        <path class="cls-1" d="m91.17,36.56c-.77,0-1.38-.6-1.38-1.38s.6-1.38,1.38-1.38,1.38.6,1.38,1.38-.6,1.38-1.38,1.38Z"/>
        <path d="m91.17,34.23c.54,0,.96.41.96.96s-.41.96-.96.96-.96-.41-.96-.96.41-.96.96-.96Z"/>
      </g>
    </g>
  </g>
</svg>
